<?xml version="1.0" standalone="no"?>
<!DOCTYPE svg PUBLIC "-//W3C//DTD SVG 20010904//EN"
 "http://www.w3.org/TR/2001/REC-SVG-20010904/DTD/svg10.dtd">
<svg version="1.0" xmlns="http://www.w3.org/2000/svg"
 width="268.000000pt" height="268.000000pt" viewBox="0 0 268.000000 268.000000"
 preserveAspectRatio="xMidYMid meet">
<metadata>
Created by potrace 1.14, written by Peter Selinger 2001-2017
</metadata>
<g transform="translate(0.000000,268.000000) scale(0.100000,-0.100000)"
fill="#000000" stroke="none">
<path d="M1175 2639 c-430 -54 -816 -330 -1008 -721 -352 -713 9 -1570 765
-1821 227 -76 494 -85 727 -26 493 125 863 517 968 1024 23 113 23 371 0 487
-60 301 -215 565 -443 756 -285 239 -645 346 -1009 301z m-182 -729 c73 -25
155 -88 182 -140 23 -45 35 -112 23 -127 -8 -10 -55 -13 -184 -13 l-173 0 -16
29 c-25 50 -115 50 -160 1 -44 -49 1 -79 193 -130 231 -60 299 -98 346 -191
46 -94 33 -244 -30 -326 -88 -115 -347 -192 -550 -164 -131 18 -211 48 -260
96 -46 46 -79 111 -89 172 l-7 42 179 3 c98 2 183 2 190 0 6 -2 17 -17 24 -34
16 -40 65 -63 114 -54 44 9 85 49 85 83 0 33 -52 80 -98 91 -345 82 -411 114
-460 220 -22 48 -24 64 -19 132 11 168 121 281 317 325 99 22 305 14 393 -15z
m798 -35 c4 -16 33 -181 64 -365 32 -184 62 -339 66 -344 18 -20 29 14 64 199
51 276 102 526 110 533 9 9 375 15 375 7 0 -4 -31 -121 -69 -259 -39 -138 -90
-333 -115 -433 -58 -231 -94 -343 -109 -343 -7 1 -125 -1 -263 -4 l-252 -5
-11 27 c-6 15 -22 77 -36 137 -14 61 -64 241 -110 400 -83 289 -125 444 -125
463 0 18 29 20 219 18 l185 -1 7 -30z"/>
</g>
</svg>
